<svg width="30" height="32" viewBox="0 0 30 32" fill="none" xmlns="http://www.w3.org/2000/svg">
<g id="Layer_1" clip-path="url(#clip0_5_84)">
<path id="Vector" d="M27.3039 31.9999C26.3462 31.0451 25.3838 30.0958 24.4355 29.1316C24.2429 28.9354 24.1262 28.8987 23.9211 29.1206C23.4904 29.5855 23.0292 30.0231 22.5789 30.47C22.3448 30.7021 22.3142 30.6958 22.2336 30.3935C21.5092 27.6954 20.7865 24.9981 20.0645 22.2993C19.976 21.968 20.0018 21.9407 20.3244 22.0266C23.0386 22.7494 25.7519 23.476 28.4668 24.1972C28.697 24.2582 28.744 24.3301 28.556 24.5121C28.0854 24.9677 27.6336 25.4435 27.1583 25.8944C26.9727 26.0702 26.9617 26.1764 27.152 26.3624C28.0525 27.2414 28.9296 28.1447 29.8348 29.019C30.0728 29.2488 30.0431 29.3753 29.8246 29.5863C29.1065 30.2794 28.4057 30.992 27.7001 31.6983C27.6054 31.7937 27.52 31.8984 27.43 31.9992H27.3047L27.3039 31.9999Z" fill="#298BA7"/>
<path id="Vector_2" d="M0 14.1005C0.241967 8.32855 2.84801 4.00057 8.06244 1.4041C13.1774 -1.14237 19.4858 -0.139877 23.6603 3.72006C26.1207 5.99462 27.632 8.78174 28.1066 12.0908C28.5834 15.4179 27.9405 18.5402 26.2045 21.432C26.087 21.6274 25.9657 21.6735 25.7456 21.6125C24.7926 21.3476 23.8365 21.0953 22.8788 20.8491C22.6227 20.7835 22.6141 20.6882 22.7629 20.4905C23.9524 18.9035 24.6493 17.1142 24.8279 15.1483C25.0338 12.8847 24.5906 10.7414 23.4371 8.76377C22.2743 6.77051 20.6353 5.29608 18.5351 4.33968C17.3598 3.80445 16.1225 3.51222 14.8273 3.42783C13.2299 3.32391 11.6919 3.55676 10.2088 4.14122C8.09141 4.97572 6.40391 6.35092 5.14865 8.24338C4.20662 9.66312 3.63186 11.229 3.45567 12.9198C3.21292 15.2483 3.64908 17.451 4.84169 19.4841C6.00298 21.4633 7.62079 22.9518 9.7241 23.8808C12.4742 25.0959 15.2659 25.163 18.0778 24.0785C18.6777 23.8472 18.5986 23.816 18.7607 24.4223C18.976 25.2256 19.1835 26.0304 19.413 26.8297C19.4866 27.0868 19.4216 27.1962 19.1718 27.2884C17.1992 28.0166 15.1735 28.3237 13.0701 28.1604C9.64971 27.8947 6.70695 26.5656 4.26301 24.184C1.95845 21.9391 0.575553 19.2083 0.143301 16.0109C0.0579468 15.3811 0.00783065 14.7506 0 14.1005Z" fill="#298BA7"/>
<path id="Vector_3" d="M5.20033 14.4209C5.19407 9.8874 8.18225 6.23687 12.3544 5.36799C16.3214 4.54209 20.4952 6.58848 22.1787 10.2734C23.7817 13.7825 23.2656 17.0463 20.828 20.0233C20.6878 20.1944 20.5484 20.2272 20.3401 20.1686C19.5289 19.9412 18.7129 19.7287 17.8985 19.5115C17.5728 19.4245 17.4519 19.5388 17.536 19.8545C17.7082 20.4968 17.8742 21.1406 18.0575 21.779C18.1248 22.0134 18.0653 22.129 17.8382 22.2306C13.8336 24.027 9.19945 22.7346 6.72574 19.1005C5.70463 17.601 5.19094 15.9313 5.2019 14.4209H5.20033ZM13.132 19.6849C13.132 19.9756 13.139 20.2671 13.1296 20.5577C13.1234 20.7585 13.2072 20.8406 13.4061 20.8374C13.7702 20.832 14.1351 20.8374 14.5 20.8367C14.9127 20.8351 14.9276 20.821 14.9291 20.421C14.9315 19.9115 14.9346 19.4021 14.9291 18.8934C14.9268 18.6699 15.0129 18.541 15.2431 18.516C15.4828 18.4902 15.7091 18.4097 15.9354 18.3308C16.9314 17.9855 17.5955 17.1525 17.6589 16.1696C17.7435 14.8514 17.3253 14.0755 16.2439 13.5442C15.5947 13.2254 14.8923 13.0637 14.2032 12.866C13.8924 12.7769 13.583 12.6808 13.2964 12.5331C12.948 12.3534 12.8086 12.0924 12.8477 11.751C12.8846 11.4283 13.1038 11.2063 13.4852 11.1141C13.565 11.0946 13.6496 11.0907 13.7326 11.0829C14.6699 10.9954 15.4906 11.3392 16.2768 11.7869C16.4451 11.883 16.5258 11.8736 16.6127 11.6994C16.8132 11.3001 17.0183 10.9024 17.2423 10.5156C17.3707 10.2945 17.3394 10.1703 17.1076 10.0515C16.5493 9.76551 15.9769 9.51391 15.3606 9.39515C15.0098 9.32717 14.9064 9.15214 14.9252 8.81694C14.9487 8.39187 14.9252 7.96525 14.9323 7.53941C14.9362 7.31125 14.8399 7.22217 14.6143 7.22686C14.2291 7.23467 13.843 7.2378 13.4585 7.2253C13.2197 7.21826 13.121 7.30109 13.1289 7.54956C13.1437 8.00666 13.1203 8.46454 13.1375 8.92086C13.1477 9.18574 13.0788 9.32404 12.8 9.41234C11.8094 9.72644 11.0772 10.3336 10.7938 11.3704C10.4093 12.7753 10.9057 13.802 12.2338 14.3881C12.4429 14.4803 12.6582 14.5607 12.8736 14.6365C13.482 14.8499 14.1155 14.9874 14.7146 15.2319C15.2377 15.446 15.4914 15.7656 15.4295 16.1313C15.3661 16.5063 15.0286 16.7111 14.4577 16.7337C13.3552 16.7767 12.3669 16.4235 11.4523 15.8461C11.2409 15.7125 11.1665 15.7351 11.0678 15.95C10.8721 16.3743 10.6638 16.7947 10.4359 17.2025C10.3098 17.4291 10.3529 17.5424 10.5745 17.6643C11.2746 18.048 12.0122 18.3215 12.7961 18.4652C13.0412 18.5105 13.161 18.6067 13.1383 18.8754C13.1156 19.1434 13.1336 19.4154 13.1343 19.6857L13.132 19.6849Z" fill="#298BA7"/>
</g>
<defs>
<clipPath id="clip0_5_84">
<rect width="30" height="32" fill="white"/>
</clipPath>
</defs>
</svg>
