<svg width="32" height="32" viewBox="0 0 32 32" fill="none" xmlns="http://www.w3.org/2000/svg">
<g id="Layer_1" clip-path="url(#clip0_6_116)">
<path id="Vector" d="M0 19.4817C0.153293 19.1689 0.397312 18.9585 0.717976 18.8224C1.24199 18.5995 1.70969 18.2437 2.28767 18.1483C3.07525 18.0185 3.68999 18.3133 4.1616 18.9366C4.24294 19.0437 4.3102 19.1634 4.37043 19.2838C5.92995 22.4105 7.49182 25.5363 9.04275 28.6677C9.54955 29.6906 9.2242 30.7229 8.22622 31.2836C7.81014 31.5175 7.37607 31.7231 6.93809 31.9155C6.47508 32.1196 5.9847 31.9452 5.72347 31.5112C5.65934 31.4048 5.60538 31.2914 5.54985 31.1796C3.75021 27.5798 1.95058 23.98 0.150165 20.3803C0.104021 20.2872 0.0508371 20.198 0.000782109 20.1073C0.000782109 19.8993 0.000782109 19.6913 0.000782109 19.4832L0 19.4817Z" fill="#298BA7"/>
<path id="Vector_2" d="M17.5474 0C18.7683 0.285449 19.7264 0.938462 20.2801 2.07948C20.9856 3.53331 20.8471 4.94804 19.8468 6.20949C18.8848 7.42324 17.5795 7.90342 16.0661 7.53663C14.505 7.15812 13.5164 6.12503 13.1668 4.55232C12.7398 2.62848 13.9716 0.665526 15.9089 0.109487C16.0387 0.0719488 16.1678 0.0359744 16.2976 0C16.7137 0 17.1305 0 17.5466 0L17.5474 0Z" fill="#298BA7"/>
<path id="Vector_3" d="M16.5838 28.2454C14.7944 28.2454 13.0049 28.2399 11.2154 28.2516C10.9464 28.2532 10.8095 28.1585 10.6922 27.9224C9.02632 24.5689 7.35417 21.2178 5.6742 17.8714C5.54906 17.6227 5.57096 17.4804 5.78604 17.2927C6.48368 16.6835 7.18523 16.0813 7.9955 15.623C10.2793 14.3295 13.2427 14.4288 15.3598 16.1095C15.4818 16.2064 15.6187 16.2909 15.722 16.4051C16.1419 16.8673 16.6644 16.983 17.2705 16.9721C18.7167 16.9463 20.1628 16.9588 21.6089 16.9666C22.5529 16.9713 23.3577 17.6634 23.4875 18.562C23.6275 19.5302 23.048 20.4178 22.104 20.6923C21.91 20.7486 21.7145 20.7533 21.5174 20.7541C20.352 20.7549 19.1867 20.7502 18.0214 20.7572C17.4011 20.7611 17.0461 21.0442 16.9749 21.5643C16.9139 22.0093 17.1923 22.4206 17.6264 22.5309C17.7992 22.5747 17.9744 22.5856 18.152 22.5849C19.4112 22.5833 20.6696 22.5856 21.9288 22.5833C22.7125 22.5817 23.3475 22.2978 23.8512 21.6691C25.406 19.7296 26.9851 17.8089 28.5501 15.8772C29.0702 15.2351 29.735 14.952 30.5375 15.1382C31.3008 15.3149 31.7841 15.8279 31.9546 16.599C32.0829 17.1809 31.9257 17.7056 31.5847 18.1897C30.6931 19.4574 29.8101 20.7314 28.9232 22.003C28.0597 23.2402 27.1978 24.4782 26.3305 25.7115C25.1589 27.3773 23.5626 28.2438 21.515 28.2469C19.871 28.2493 18.2271 28.2469 16.5831 28.2469L16.5838 28.2454Z" fill="#298BA7"/>
<path id="Vector_4" d="M16.8904 13.2597C15.3825 13.2597 13.8746 13.2597 12.3667 13.2597C11.5572 13.2597 11.2444 12.9164 11.2139 12.0984C11.1662 10.8479 11.3179 9.64822 11.9819 8.55804C12.1329 8.31013 12.3135 8.0802 12.4754 7.83933C12.6256 7.61488 12.7585 7.59533 12.9596 7.80649C13.6588 8.54005 14.5183 9.02258 15.4967 9.26032C17.5075 9.7491 19.2813 9.27909 20.7963 7.86358C21.1021 7.57734 21.1013 7.56718 21.3524 7.89173C22.1251 8.89276 22.5646 10.0142 22.5646 11.2913C22.5646 11.6033 22.5685 11.9154 22.5646 12.2274C22.5576 12.8781 22.1853 13.2566 21.5385 13.2582C19.9892 13.2613 18.439 13.259 16.8896 13.2597H16.8904Z" fill="#298BA7"/>
</g>
<defs>
<clipPath id="clip0_6_116">
<rect width="32" height="32" fill="white"/>
</clipPath>
</defs>
</svg>
