<svg width="32" height="32" viewBox="0 0 32 32" fill="none" xmlns="http://www.w3.org/2000/svg">
<g id="Layer_1" clip-path="url(#clip0_5_79)">
<path id="Vector" d="M1.54325 22.5892C1.62219 21.885 1.71531 20.9262 1.84125 19.9719C1.92905 19.3045 1.83948 18.6749 1.54858 18.0759C1.1814 17.3213 0.801812 16.5729 0.431091 15.8201C-0.329864 14.2776 -0.0788728 12.7881 1.15036 11.5874C1.70822 11.0423 2.26873 10.4991 2.84344 9.9711C3.43234 9.42964 3.78 8.76586 3.94762 7.98336C4.12323 7.16217 4.30681 6.34099 4.52854 5.5315C4.92409 4.08252 6.13559 3.13541 7.61936 3.05626C8.52577 3.0077 9.4304 2.93754 10.3368 2.87728C10.9195 2.8386 11.433 2.61195 11.8968 2.26746C12.5319 1.79706 13.1598 1.31676 13.7895 0.839164C15.2644 -0.27883 16.7384 -0.27793 18.2213 0.841863C18.8253 1.29787 19.4346 1.74759 20.0314 2.2126C20.6053 2.65872 21.2562 2.87818 21.9702 2.92135C22.7994 2.97172 23.6287 3.01309 24.457 3.05986C25.8557 3.13901 27.0796 4.1032 27.4583 5.47394C27.7084 6.37967 27.9062 7.30159 28.1181 8.21811C28.2671 8.8603 28.5749 9.40446 29.0467 9.85687C29.6666 10.4505 30.2928 11.0378 30.9039 11.6404C32.0683 12.789 32.3167 14.292 31.5956 15.767C31.2808 16.4101 30.9863 17.0658 30.6342 17.6873C30.1323 18.5724 30.0604 19.4961 30.2085 20.4828C30.3292 21.2896 30.4666 22.0999 30.4578 22.9211C30.4427 24.2802 29.8236 25.292 28.6432 25.9072C27.8574 26.3174 27.0281 26.6466 26.2095 26.9884C25.508 27.2807 24.9599 27.7412 24.5519 28.3852C24.1271 29.0553 23.697 29.7226 23.2597 30.3846C22.34 31.7769 20.9015 32.304 19.3184 31.8318C18.5849 31.6132 17.8532 31.3911 17.1242 31.1581C16.3943 30.9243 15.6715 30.9072 14.9371 31.1455C14.2099 31.3821 13.4755 31.597 12.7412 31.8138C11.0667 32.3094 9.66454 31.7904 8.70315 30.3217C8.27478 29.6669 7.84995 29.0094 7.42868 28.351C7.03046 27.7295 6.49655 27.2825 5.81808 26.9992C5.04028 26.6736 4.26247 26.3444 3.49974 25.9846C2.23414 25.3874 1.54059 24.2523 1.54503 22.591L1.54325 22.5892ZM16.0156 5.04491C10.0157 5.03861 5.18218 9.90904 5.16976 15.9739C5.15735 22.064 9.97584 26.9623 15.9845 26.9686C21.9844 26.9749 26.8171 22.1053 26.8304 16.0387C26.8437 9.94861 22.0261 5.05121 16.0156 5.04491Z" fill="#298BA7"/>
<path id="Vector_2" d="M15.9871 25.9846C10.5638 25.9792 6.13375 21.4794 6.14262 15.9856C6.15061 10.4973 10.5993 6.01812 16.0297 6.02981C21.4513 6.0415 25.8725 10.5477 25.8583 16.045C25.8441 21.5162 21.4007 25.99 15.988 25.9846H15.9871ZM11.4711 14.2713C11.0729 14.2587 10.719 14.4215 10.4316 14.7309C9.87822 15.3254 9.91636 16.161 10.5452 16.8077C11.5323 17.8232 12.5309 18.826 13.5278 19.8307C14.3224 20.6321 15.1038 20.6294 15.894 19.8226C17.7423 17.9347 19.5879 16.0441 21.4327 14.1526C21.5329 14.0491 21.6304 13.9385 21.7085 13.818C22.2468 12.9932 21.8309 11.9013 20.8881 11.6459C20.3116 11.4894 19.8451 11.6863 19.4443 12.0974C17.956 13.6201 16.4643 15.1393 14.985 16.6701C14.7721 16.8905 14.6391 16.8949 14.4262 16.6728C13.7956 16.0108 13.1446 15.3695 12.5034 14.7174C12.2249 14.435 11.8977 14.2704 11.4711 14.2713Z" fill="#298BA7"/>
</g>
<defs>
<clipPath id="clip0_5_79">
<rect width="32" height="32" fill="white"/>
</clipPath>
</defs>
</svg>
