<svg width="16" height="16" viewBox="0 0 16 16" fill="none" xmlns="http://www.w3.org/2000/svg">
<g id="ph:star-fill">
<path id="Vector" d="M14.6431 7.17815L11.8306 9.60502L12.6875 13.2344C12.7348 13.4314 12.7226 13.638 12.6525 13.8281C12.5824 14.0182 12.4576 14.1833 12.2937 14.3025C12.1299 14.4217 11.9344 14.4896 11.7319 14.4977C11.5294 14.5059 11.3291 14.4538 11.1562 14.3481L8 12.4056L4.84187 14.3481C4.66902 14.4532 4.46894 14.5048 4.26684 14.4963C4.06473 14.4879 3.86964 14.4199 3.70613 14.3008C3.54261 14.1817 3.41798 14.0169 3.34794 13.8272C3.27789 13.6374 3.26556 13.4312 3.3125 13.2344L4.1725 9.60502L1.36 7.17815C1.20706 7.04596 1.09645 6.87166 1.04199 6.67699C0.987524 6.48232 0.991618 6.27592 1.05376 6.08356C1.1159 5.89121 1.23333 5.72142 1.39139 5.59541C1.54945 5.4694 1.74113 5.39274 1.9425 5.37502L5.63 5.07752L7.0525 1.63502C7.1295 1.44741 7.26054 1.28693 7.42898 1.17398C7.59742 1.06104 7.79564 1.00073 7.99844 1.00073C8.20124 1.00073 8.39945 1.06104 8.56789 1.17398C8.73633 1.28693 8.86738 1.44741 8.94437 1.63502L10.3662 5.07752L14.0537 5.37502C14.2555 5.39208 14.4478 5.46831 14.6064 5.59415C14.765 5.71999 14.883 5.88984 14.9455 6.08243C15.0081 6.27502 15.0124 6.48178 14.9579 6.6768C14.9034 6.87182 14.7926 7.04644 14.6394 7.17877L14.6431 7.17815Z" fill="#EBD510"/>
</g>
</svg>
